<svg xmlns="http://www.w3.org/2000/svg" width="384pt" height="384pt" viewBox="0 0 384 384" version="1.1" class="iconadda">
<g>
<g id="Compass_free_icon_1_ZoWa1uw-0"><path style=" stroke:none;fill-rule:nonzero;fill:#000001;fill-opacity:1;" d="M 167.523438 243.199219 L 141.550781 217.226562 L 123.101562 261.648438 Z M 201.894531 182.851562 L 157.476562 201.304688 L 183.449219 227.277344 Z M 201.894531 182.851562 " />
</g><g id="Compass_free_icon_1_ZoWa1uw-1"><path style=" stroke:none;fill-rule:nonzero;fill:#000001;fill-opacity:1;" d="M 272.054688 210.988281 L 324.25 210.988281 C 321.585938 171.921875 305.105469 135.554688 277.152344 107.601562 C 254.863281 85.3125 227.226562 70.320312 197.132812 63.808594 C 201.351562 57.332031 203.816406 49.609375 203.816406 41.320312 C 203.816406 18.539062 185.28125 0.00390625 162.5 0.00390625 C 139.714844 0.00390625 121.183594 18.539062 121.183594 41.320312 C 121.183594 49.609375 123.648438 57.332031 127.867188 63.808594 C 97.777344 70.320312 70.140625 85.3125 47.851562 107.601562 C 19.894531 135.554688 3.414062 171.921875 0.75 210.988281 L 52.945312 210.988281 L 52.945312 233.511719 L 0.75 233.511719 C 3.414062 272.578125 19.894531 308.945312 47.847656 336.898438 C 75.800781 364.855469 112.167969 381.335938 151.234375 384 L 151.234375 331.804688 L 173.757812 331.804688 L 173.761719 384 C 212.832031 381.335938 249.199219 364.855469 277.148438 336.898438 C 305.105469 308.941406 321.585938 272.574219 324.25 233.507812 L 272.054688 233.507812 Z M 162.5 22.523438 C 172.863281 22.523438 181.292969 30.953125 181.292969 41.316406 C 181.292969 47.457031 178.332031 52.921875 173.761719 56.351562 C 170.515625 58.792969 166.5625 60.113281 162.5 60.109375 C 158.4375 60.113281 154.484375 58.796875 151.238281 56.351562 C 146.667969 52.917969 143.707031 47.457031 143.707031 41.316406 C 143.707031 30.953125 152.136719 22.523438 162.5 22.523438 Z M 173.761719 81.058594 L 173.761719 112.695312 L 151.238281 112.695312 L 151.238281 81.058594 C 154.902344 82.101562 158.691406 82.632812 162.5 82.632812 C 166.402344 82.632812 170.179688 82.078125 173.761719 81.058594 Z M 196.007812 255.757812 L 81.390625 303.359375 L 128.992188 188.742188 L 243.609375 141.140625 Z M 196.007812 255.757812 " />
</g></g>
</svg>