<svg xmlns="http://www.w3.org/2000/svg" width="384pt" height="384pt" viewBox="0 0 384 384" version="1.1" class="iconadda">
<g>
<g id="Travel_free_icon_UkHJzH6-0"><path style=" stroke:none;fill-rule:nonzero;fill:#000001;fill-opacity:1;" d="M 367.089844 31.808594 C 359.34375 26.203125 350.226562 23.25 340.699219 23.25 C 332.558594 23.25 324.550781 25.46875 317.703125 29.589844 L 79.082031 189.800781 L 36.511719 162.742188 L 0 184.222656 L 51.980469 232.199219 L 70.25 299.960938 L 106.019531 278.472656 L 110.160156 223.605469 L 177.265625 181.648438 L 196.65625 301.574219 L 235.238281 278.414062 L 254.445312 135.75 L 383.25 44.058594 Z M 0 338.25 L 384 338.25 L 384 360.75 L 0 360.75 Z M 0 338.25 " />
</g><g id="Travel_free_icon_UkHJzH6-1"><path style=" stroke:none;fill-rule:nonzero;fill:#000001;fill-opacity:1;" d="M 106.824219 45.75 L 68.25 68.910156 L 145.566406 118.0625 L 213.597656 72.386719 Z M 106.824219 45.75 " />
</g></g>
</svg>