<svg xmlns="http://www.w3.org/2000/svg" width="384pt" height="384pt" viewBox="0 0 384 384" version="1.1" class="iconadda">
<g>
<g id="World_free_icon_1_nBFi06d-0"><path style=" stroke:none;fill-rule:nonzero;fill:#000001;fill-opacity:1;" d="M 267.789062 243.886719 C 270.914062 240.054688 344.265625 149.296875 344.265625 84.8125 C 344.265625 38.046875 306.230469 0 259.476562 0 C 212.726562 0 174.6875 38.046875 174.6875 84.8125 C 174.6875 149.265625 247.21875 240.007812 250.304688 243.839844 C 254.789062 249.402344 263.265625 249.433594 267.785156 243.886719 Z M 220.039062 84.882812 C 220.039062 63.121094 237.738281 45.417969 259.496094 45.417969 C 281.253906 45.417969 298.957031 63.121094 298.957031 84.882812 C 298.957031 106.644531 281.257812 124.351562 259.496094 124.351562 C 237.738281 124.351562 220.039062 106.644531 220.039062 84.882812 Z M 220.039062 84.882812 " />
</g><g id="World_free_icon_1_nBFi06d-1"><path style=" stroke:none;fill-rule:nonzero;fill:#000001;fill-opacity:1;" d="M 276.453125 84.882812 C 276.453125 75.527344 268.84375 67.917969 259.496094 67.917969 C 250.144531 67.917969 242.535156 75.527344 242.535156 84.882812 C 242.535156 94.242188 250.144531 101.851562 259.496094 101.851562 C 268.84375 101.851562 276.453125 94.238281 276.453125 84.882812 Z M 93.390625 225.734375 C 93.390625 221.972656 95.273438 218.457031 98.402344 216.371094 L 128.273438 196.457031 L 136.925781 153.207031 L 40.515625 105.003906 C -6.601562 160.128906 -12.46875 237.867188 22.109375 298.535156 L 93.390625 273.953125 Z M 285.230469 258.101562 C 271.660156 274.753906 246.226562 274.636719 232.785156 257.957031 C 229.535156 253.921875 216.320312 237.203125 201.503906 214.078125 L 198.816406 216.308594 L 226.140625 252.734375 C 231.691406 260.132812 226.402344 270.730469 217.140625 270.730469 L 160.890625 270.730469 L 160.890625 315.726562 L 207.390625 315.726562 C 211.277344 315.726562 214.890625 317.734375 216.945312 321.035156 L 244.972656 366.078125 C 311.675781 332.605469 349.539062 258.734375 335.320312 183.34375 C 314.367188 221.710938 289.855469 252.425781 285.230469 258.097656 Z M 285.230469 258.101562 " />
</g><g id="World_free_icon_1_nBFi06d-2"><path style=" stroke:none;fill-rule:nonzero;fill:#000001;fill-opacity:1;" d="M 149.640625 338.226562 C 143.429688 338.226562 138.390625 333.191406 138.390625 326.976562 L 138.390625 259.484375 C 138.390625 253.269531 143.429688 248.234375 149.640625 248.234375 L 194.640625 248.234375 L 174.390625 221.238281 C 170.792969 216.4375 171.59375 209.660156 176.210938 205.832031 L 189.667969 194.671875 C 170.449219 161.464844 152.191406 120.523438 152.191406 84.816406 C 152.191406 71.144531 154.765625 58.070312 159.445312 46.035156 C 120.261719 48.242188 84.667969 63.761719 57.097656 88.148438 L 154.671875 136.929688 L 154.671875 136.925781 C 159.207031 139.195312 161.664062 144.222656 160.671875 149.199219 L 149.421875 205.441406 C 148.835938 208.367188 147.113281 210.941406 144.628906 212.597656 L 115.890625 231.757812 L 115.890625 281.980469 C 115.890625 286.78125 112.84375 291.050781 108.308594 292.613281 L 34.988281 317.894531 C 79.984375 376.410156 156.359375 398.015625 223.960938 374.902344 L 201.136719 338.230469 Z M 149.640625 338.226562 " />
</g></g>
</svg>